<svg fill="none" height="27" viewBox="0 0 25 27" width="25" xmlns="http://www.w3.org/2000/svg"><path clip-rule="evenodd" d="m6.375 0c.48325 0 .875.391751.875.875v2.625h10.5v-2.625c0-.483249.3918-.875.875-.875s.875.391751.875.875v2.625h3.2083c1.1276 0 2.0417.91409 2.0417 2.04167v18.66663c0 1.1276-.9141 2.0417-2.0417 2.0417h-20.41663c-1.12758 0-2.04167-.9141-2.04167-2.0417v-18.66663c0-1.12758.91408-2.04167 2.04167-2.04167h3.20833v-2.625c0-.483249.39175-.875.875-.875zm-4.08333 5.25c-.16109 0-.29167.13058-.29167.29167v3.79166h21v-3.79166c0-.16109-.1306-.29167-.2917-.29167zm20.70833 5.8333h-21v13.125c0 .1611.13058.2917.29167.2917h20.41663c.1611 0 .2917-.1306.2917-.2917z" fill="#333" fill-rule="evenodd"/></svg>