<svg width="29" height="24" viewBox="0 0 29 24" fill="none" xmlns="http://www.w3.org/2000/svg">
<path fill-rule="evenodd" clip-rule="evenodd" d="M4.58311 7.33333C4.58311 3.78952 7.45589 0.916664 10.9997 0.916664C14.5435 0.916664 17.4163 3.78952 17.4163 7.33333C17.4163 9.53774 16.3047 11.4825 14.6114 12.6377C18.5367 14.0756 21.3641 17.7901 21.4949 22.1823C21.5092 22.6653 21.1293 23.0686 20.6463 23.0829C20.1632 23.0973 19.76 22.7174 19.7456 22.2344C19.6055 17.525 15.7432 13.75 10.9996 13.75C6.25594 13.75 2.39369 17.525 2.25353 22.2344C2.23915 22.7174 1.83592 23.0973 1.35288 23.0829C0.869848 23.0686 0.489925 22.6653 0.504301 22.1823C0.635024 17.7901 3.46254 14.0756 7.38785 12.6377C5.69467 11.4825 4.58311 9.5377 4.58311 7.33333ZM10.9997 2.66666C8.42242 2.66666 6.33311 4.75599 6.33311 7.33333C6.33311 9.91067 8.42242 12 10.9997 12C13.577 12 15.6663 9.91067 15.6663 7.33333C15.6663 4.75599 13.577 2.66666 10.9997 2.66666Z" fill="#333333"/>
<path d="M20.6713 7.33333C20.499 7.33333 20.3301 7.34559 20.1653 7.36917C19.6869 7.43759 19.2436 7.10525 19.1752 6.62687C19.1068 6.14849 19.4391 5.70522 19.9175 5.6368C20.1642 5.60152 20.4159 5.58333 20.6713 5.58333C23.5901 5.58333 25.9563 7.94952 25.9563 10.8683C25.9563 12.5901 25.1328 14.1185 23.8605 15.0828C26.5806 16.3021 28.4763 19.0329 28.4763 22.2083C28.4763 22.6916 28.0845 23.0833 27.6013 23.0833C27.118 23.0833 26.7263 22.6916 26.7263 22.2083C26.7263 19.4715 24.9098 17.1566 22.4148 16.4079L21.7913 16.2207V14.2655L22.2699 14.0223C23.4208 13.4375 24.2063 12.2439 24.2063 10.8683C24.2063 8.91599 22.6236 7.33333 20.6713 7.33333Z" fill="#333333"/>
</svg>
