<svg width="25" height="24" viewBox="0 0 25 24" fill="none" xmlns="http://www.w3.org/2000/svg">
<path fill-rule="evenodd" clip-rule="evenodd" d="M12.25 23C11.8358 23 11.5 22.6642 11.5 22.25L11.5 3.75C11.5 3.33579 11.8358 3 12.25 3C12.6642 3 13 3.33579 13 3.75L13 22.25C13 22.6642 12.6642 23 12.25 23Z" fill="#333333"/>
<path fill-rule="evenodd" clip-rule="evenodd" d="M2.5 12.75C2.5 12.3358 2.83579 12 3.25 12H21.75C22.1642 12 22.5 12.3358 22.5 12.75C22.5 13.1642 22.1642 13.5 21.75 13.5H3.25C2.83579 13.5 2.5 13.1642 2.5 12.75Z" fill="#333333"/>
</svg>
