<svg height="800" viewBox="0 0 487.381 487.381" width="800" xmlns="http://www.w3.org/2000/svg"><path style="fill:#fff;" d="m400.1 100.918h-9.871v-89.272c0-6.431-5.215-11.646-11.647-11.646h-269.778c-6.436 0-11.646 5.215-11.646 11.646v89.271h-9.877c-38.523 0-69.871 31.344-69.871 69.871v144.258c0 38.528 31.348 69.87 69.871 69.87h9.877v90.818c0 6.432 5.21 11.646 11.646 11.646h269.778c6.432 0 11.646-5.215 11.646-11.646v-90.818h9.871c38.523 0 69.871-31.342 69.871-69.87v-144.257c.001-38.528-31.347-69.871-69.87-69.871zm-279.651-77.627h246.489v77.627h-246.489zm246.489 440.801h-246.489v-143.627h246.489zm79.744-149.046c0 25.687-20.896 46.581-46.582 46.581h-9.871v-41.162h25.186c6.436 0 11.645-5.214 11.645-11.646 0-6.43-5.209-11.645-11.645-11.645h-36.832-269.779-33.383c-6.431 0-11.646 5.215-11.646 11.645 0 6.433 5.215 11.646 11.646 11.646h21.737v41.162h-9.877c-25.685 0-46.581-20.896-46.581-46.581v-144.257c0-25.685 20.896-46.58 46.581-46.58h21.522 269.777 21.52c25.684 0 46.58 20.896 46.58 46.58v144.257z"/><path style="fill:#fff;" d="m378.582 170.646c-8.771 0-15.893 7.119-15.893 15.893s7.119 15.893 15.893 15.893c8.775 0 15.895-7.118 15.895-15.893-.002-8.774-7.12-15.893-15.895-15.893z"/><path style="fill:#fff;" d="m147.618 360.734h192.146c6.432 0 11.646-5.213 11.646-11.646 0-6.43-5.215-11.645-11.646-11.645h-192.146c-6.431 0-11.646 5.215-11.646 11.645 0 6.433 5.215 11.646 11.646 11.646z"/><path style="fill:#fff;" d="m147.618 403.926h192.146c6.432 0 11.646-5.217 11.646-11.646 0-6.432-5.215-11.645-11.646-11.645h-192.146c-6.431 0-11.646 5.213-11.646 11.645s5.215 11.646 11.646 11.646z"/></svg>