<svg width="31" height="30" viewBox="0 0 31 30" fill="none" xmlns="http://www.w3.org/2000/svg">
<path fill-rule="evenodd" clip-rule="evenodd" d="M12.0625 1.25C6.36706 1.25 1.75 5.86706 1.75 11.5625C1.75 17.2579 6.36706 21.875 12.0625 21.875C14.5727 21.875 16.8733 20.9782 18.6616 19.4874L25.7746 26.6004C26.1407 26.9665 26.7343 26.9665 27.1004 26.6004C27.4665 26.2343 27.4665 25.6407 27.1004 25.2746L19.9874 18.1616C21.4782 16.3733 22.375 14.0727 22.375 11.5625C22.375 5.86706 17.7579 1.25 12.0625 1.25ZM3.625 11.5625C3.625 6.9026 7.4026 3.125 12.0625 3.125C16.7224 3.125 20.5 6.9026 20.5 11.5625C20.5 16.2224 16.7224 20 12.0625 20C7.4026 20 3.625 16.2224 3.625 11.5625Z" fill="white"/>
</svg>
